#define wireless_full_width 12
#define wireless_full_height 16
static unsigned char wireless_full_bits[] = {
   0x00,   0x00, 
   0x03,   0x00, 
   0x07,   0x00, 
   0x0f,   0x00, 
   0x1f,   0x00, 
   0x3f,   0x00, 
   0x7f,   0x00, 
   0xff,   0x00, 
   0xff,   0x01, 
   0xff,   0x03, 
   0xff,   0x07, 
   0xff,   0x07, 
   0xff,   0x07, 
   0xff,   0x07, 
   0xff,   0x03, 
   0xff,   0x00, 
   };
