#define cpu_width 8
#define cpu_height 15
static unsigned char cpu_bits[] = {
0x00, 0x00, 0x00, 0xDB, 0x81, 0x3C, 0xBD, 0xBD, 0x3C, 0x81, 0xDB, 0x00, 0x00, 0x00, 0x00,};
