#define cpu_width 11
#define cpu_height 15
static unsigned char cpu_bits[] = {
0x00, 0x00, 
0x00, 0x00, 
0xa8, 0x00, 
0x00, 0x00, 
0xFa, 0xea, 
0xf8, 0x00, 
0xfa, 0xea, 
0xf8, 0x00, 
0xFa, 0xea, 
0x00, 0x00, 
0xa8, 0x00, 
0x00, 0x00, 
0x00, 0x00, 
0x00, 0x00, 
0x00, 0x00, 
};
